<?xml version="1.0" encoding="UTF-8" standalone="no"?>
<!-- Created with Inkscape (http://www.inkscape.org/) -->

<svg
   version="1.1"
   id="svg2"
   width="1235.8833"
   height="422.88705"
   viewBox="0 0 1235.8833 422.88706"
   sodipodi:docname="Logo_UniCT.png"
   xmlns:inkscape="http://www.inkscape.org/namespaces/inkscape"
   xmlns:sodipodi="http://sodipodi.sourceforge.net/DTD/sodipodi-0.dtd"
   xmlns="http://www.w3.org/2000/svg"
   xmlns:svg="http://www.w3.org/2000/svg">
  <defs
     id="defs6" />
  <sodipodi:namedview
     id="namedview4"
     pagecolor="#ffffff"
     bordercolor="#000000"
     borderopacity="0.25"
     inkscape:showpageshadow="2"
     inkscape:pageopacity="0.0"
     inkscape:pagecheckerboard="0"
     inkscape:deskcolor="#d1d1d1"
     showgrid="false" />
  <g
     inkscape:groupmode="layer"
     inkscape:label="Image"
     id="g8"
     transform="translate(-192.06613,-67.918899)">
    <path
       style="fill:#000000;stroke-width:0.32"
       d="m 415.05877,490.66405 c -4.89088,-0.61283 -7.9953,-3.33568 -9.02423,-7.91511 l -0.28845,-1.2838 1.79997,-0.18077 c 0.98999,-0.0995 2.75274,-0.27021 3.91725,-0.37949 l 2.11731,-0.19869 0.34599,0.99248 c 0.80476,2.30861 3.08515,3.26019 6.24214,2.60483 2.52541,-0.52428 3.80122,-2.16041 3.10746,-3.98512 -0.51728,-1.36057 -2.22746,-1.90182 -5.32567,-1.68547 l -2.59545,0.18125 -0.20224,-2.14128 c -0.11127,-1.1777 -0.2033,-2.59034 -0.20455,-3.1392 l -0.003,-0.99792 2.32,-0.15046 c 3.74458,-0.24292 5.38061,-1.58932 4.43991,-3.65392 -1.25021,-2.74388 -7.53927,-1.84759 -8.2018,1.16886 l -0.20916,0.95136 h -4.00272 -4.00268 l 0.22684,-1.36 c 0.90612,-5.43242 5.90983,-8.61722 13.57901,-8.64288 3.60154,-0.0122 5.99735,0.59389 7.90688,1.99971 3.53843,2.60506 3.57834,8.00925 0.0779,10.54496 l -1.28829,0.93325 1.53299,0.67811 c 2.99415,1.32445 4.24221,3.28535 4.25392,6.68355 0.0182,5.26234 -4.47235,8.5312 -12.47296,9.07965 -1.144,0.0784 -2.96528,0.0317 -4.04726,-0.1039 z m -26.43159,-0.28339 c -1.18736,-0.12106 -2.22281,-0.28407 -2.30102,-0.36224 -0.0782,-0.0782 -0.0363,-1.2498 0.093,-2.60356 0.2815,-2.94688 1.27571,-2.55161 -8.35309,-3.32102 l -6.96,-0.55613 0.0237,-1.78307 c 0.0582,-4.37482 -0.42534,-3.69178 8.68816,-12.27245 l 8.23187,-7.75059 4.04608,0.2921 4.04605,0.29212 -0.18333,1.62788 c -0.53158,4.72054 -1.24163,14.9063 -1.07024,15.35296 0.14867,0.38739 0.63607,0.51494 1.96765,0.51494 0.97354,0 1.77014,0.108 1.7703,0.24 1.3e-4,0.132 -0.23558,1.428 -0.5238,2.88 l -0.52404,2.64 h -1.67619 c -1.62137,0 -1.68278,0.0327 -1.87622,1 -0.10999,0.55002 -0.2,1.70202 -0.2,2.56 v 1.56 l -1.52,-0.0454 c -0.836,-0.025 -2.49149,-0.14445 -3.67885,-0.2655 z m -1.49731,-11.76906 c 0.0131,-0.132 0.196,-2.20685 0.40646,-4.61082 l 0.38263,-4.37078 -1.28647,1.14528 c -0.70755,0.62992 -2.75628,2.55286 -4.5527,4.27325 l -3.26627,3.12797 1.34627,0.17638 c 3.6568,0.4791 6.9361,0.60083 6.97008,0.25872 z m -35.80458,6.01584 c -1.81542,-0.50086 -3.3544,-0.96429 -3.41993,-1.02986 -0.0655,-0.0655 0.9615,-4.27049 2.2823,-9.34435 1.32083,-5.07382 2.34458,-9.28211 2.27498,-9.35171 -0.0696,-0.0696 -1.40234,0.3047 -2.9616,0.83178 -1.5593,0.52707 -3.01219,0.9583 -3.22864,0.9583 -0.35514,0 -2.58919,-5.98752 -2.31949,-6.21645 0.0622,-0.0528 2.83002,-0.99731 6.15062,-2.09888 l 6.03754,-2.00288 3.32246,0.88067 c 1.8274,0.48436 3.31482,1.04192 3.30541,1.23908 -0.009,0.19715 -1.56989,6.33446 -3.46774,13.63846 -2.98151,11.47459 -3.53386,13.28861 -4.06291,13.34323 -0.33674,0.0348 -2.0976,-0.34656 -3.913,-0.84739 z m 104.73434,-3.29584 c -0.30547,-1.276 -0.6481,-2.42394 -0.76144,-2.55094 -0.11331,-0.12701 -3.51491,0.62739 -7.5591,1.67648 -4.0442,1.04908 -7.43271,1.90902 -7.53008,1.91094 -0.0974,0.003 -0.50336,-1.35027 -0.90228,-3.0049 l -0.72524,-3.00838 5.15856,-9.87162 c 2.83721,-5.42937 5.27756,-9.99072 5.42304,-10.13635 0.14547,-0.14563 1.89827,-0.67814 3.8951,-1.18336 2.6089,-0.66009 3.69405,-0.816 3.8559,-0.55408 0.12391,0.20048 1.11716,3.93699 2.2072,8.30336 1.13188,4.53392 2.13693,7.93722 2.34333,7.93504 0.19879,-0.003 1.10243,-0.20109 2.00813,-0.44224 l 1.64672,-0.43846 0.35328,2.37533 c 0.53795,3.61689 0.57069,3.51318 -1.24672,3.94918 -0.88,0.2111 -1.59754,0.40547 -1.59453,0.4319 0.003,0.0266 0.28551,1.12644 0.62771,2.44439 0.34224,1.31795 0.51978,2.48851 0.39453,2.60125 -0.20115,0.18108 -6.40064,1.88246 -6.85923,1.88246 -0.0987,0 -0.42944,-1.044 -0.73488,-2.32 z m -6.2336,-7.4504 c 1.672,-0.44486 3.27738,-0.88154 3.56749,-0.97046 0.47065,-0.14423 0.40278,-0.64256 -0.62967,-4.62471 -0.63644,-2.45469 -1.25353,-4.35763 -1.37136,-4.22877 -0.30624,0.33508 -5.40646,10.1666 -5.40646,10.42186 0,0.35126 0.65658,0.24902 3.84,-0.59792 z M 297.87988,450.66322 c -3.74418,-1.9026 -4.18313,-6.89396 -0.8311,-9.45066 2.35612,-1.79712 6.12616,-1.21587 7.85416,1.21088 1.07466,1.50922 1.21701,4.29805 0.30245,5.92531 -1.49639,2.66247 -4.66842,3.66464 -7.32551,2.31447 z m 203.77655,-0.0516 c -5.30243,-2.67869 -3.33226,-10.49766 2.63933,-10.47472 2.95424,0.0112 5.35456,2.48576 5.36499,5.53062 0.0109,3.16775 -2.52986,5.6641 -5.7648,5.6641 -0.44787,0 -1.45565,-0.324 -2.23952,-0.72 z m 49.51891,-27.01194 c -2.19843,-1.86592 -2.43917,-2.17468 -2.05142,-2.63104 0.24163,-0.28435 2.70102,-3.16121 5.46537,-6.39302 2.76432,-3.23181 4.97428,-6.03142 4.91095,-6.22141 -0.14282,-0.42841 -3.07584,-2.93808 -3.22019,-2.75539 -1.62484,2.0561 -10.31136,11.9728 -10.48759,11.9728 -0.38797,0 -4.76643,-3.72742 -4.76643,-4.05773 0,-0.16189 2.124,-2.77129 4.72,-5.79865 2.596,-3.02733 4.91232,-5.7497 5.14736,-6.0497 0.43837,-0.55949 -0.0173,-1.10666 -2.6407,-3.17011 l -0.75594,-0.59463 -5.87536,6.88669 -5.87536,6.88669 -2.14902,-2.33126 c -1.18196,-1.28221 -2.15396,-2.45108 -2.16,-2.59748 -0.0134,-0.32835 16.31372,-19.41382 16.60819,-19.41382 0.11651,0 5.20137,4.26131 11.29968,9.46957 l 11.08787,9.4696 -7.70822,9.0104 c -4.23949,4.95574 -8.012,9.3304 -8.38333,9.72147 l -0.67517,0.71104 z m -298.37925,1.19687 c -4.57946,-1.15591 -10.56867,-6.61101 -13.25966,-12.07719 -0.84334,-1.71308 -1.08946,-2.65139 -1.1834,-4.5118 -0.10712,-2.12122 -0.02,-2.54925 0.89874,-4.41549 1.19354,-2.42442 0.93594,-2.48691 4.66891,1.13273 l 2.38339,2.31108 -0.19644,1.67139 c -0.23233,1.97673 0.20777,3.0231 2.32009,5.51609 1.6798,1.98253 3.91323,3.20615 4.89402,2.68125 0.9992,-0.53475 1.40135,-1.51417 1.04337,-2.54105 -0.16925,-0.48551 -1.42751,-2.6713 -2.79614,-4.85735 -4.80245,-7.67065 -5.72666,-10.67414 -4.30294,-13.98368 1.26069,-2.93056 4.4701,-5.17011 7.42882,-5.18387 3.21053,-0.015 6.30572,1.66931 10.09096,5.49107 7.14165,7.21053 8.82623,13.39168 5.11842,18.78077 l -0.98916,1.4377 -1.41478,-1.56266 c -0.77813,-0.85949 -2.06539,-2.32422 -2.86058,-3.25501 l -1.4458,-1.69232 0.53156,-1.32851 c 0.83779,-2.09386 0.20743,-4.01562 -2.16658,-6.60512 -2.86427,-3.12426 -4.94609,-3.97974 -6.32619,-2.59962 -0.99766,0.99764 -0.63994,2.07053 2.16196,6.48448 3.60435,5.67802 4.71769,8.1865 4.85955,10.94909 0.0994,1.93645 -0.003,2.50183 -0.70015,3.87831 -0.82561,1.62924 -2.1227,2.94464 -3.71635,3.76873 -1.12245,0.58045 -3.7224,0.84394 -5.04162,0.51098 z m 499.19606,-2.5825 c -15.213,-2.15389 -26.4903,-13.47241 -29.6911,-29.79958 -0.82,-4.18221 -0.9797,-11.57485 -0.3434,-15.88755 1.7553,-11.897 7.6252,-21.70234 16.4788,-27.52711 6.408,-4.21581 14.2283,-6.09043 21.9088,-5.25181 7.5361,0.82288 12.8982,3.84807 17.3739,9.80202 1.4504,1.92957 2.6268,3.91619 2.1333,3.60288 -0.1465,-0.0931 -1.2744,-0.83373 -2.5064,-1.64592 -1.232,-0.81222 -3.392,-1.85504 -4.8,-2.31734 -2.1797,-0.71575 -3.1543,-0.84487 -6.56,-0.86932 -3.4021,-0.0243 -4.3486,0.0855 -6.3317,0.7352 -9.9597,3.26285 -16.4429,13.65367 -17.2259,27.608 -0.5044,8.99104 1.7925,18.06381 6.1024,24.10352 4.4311,6.2097 11.4108,9.51229 19.0486,9.01325 4.7992,-0.31353 7.6596,-1.25421 10.9666,-3.60643 0.836,-0.59466 1.52,-0.97149 1.52,-0.83744 0,0.47174 -2.1914,3.49046 -3.8562,5.31194 -3.063,3.35145 -7.1871,5.85619 -11.4545,6.95689 -2.8214,0.72771 -9.6296,1.05245 -12.7632,0.6088 z m 187.24461,0.0102 c -25.00711,-2.25648 -43.63051,-13.92 -52.76431,-33.04544 -9.2264,-19.31933 -8.1514,-44.83097 2.6264,-62.32726 9.2512,-15.01811 24.5548,-24.38797 45.04721,-27.5808 6.0281,-0.9392 20.2161,-1.02202 26.4,-0.15411 10.0086,1.40473 18.3592,3.79251 27.52,7.86905 l 3.36,1.49523 0.084,12.86532 0.084,12.86531 h -1.0731 c -1.0295,0 -1.1081,-0.0892 -1.9346,-2.196 -5.0199,-12.79482 -14.234,-22.01815 -26.2193,-26.24538 -5.1706,-1.82368 -8.6878,-2.39155 -14.9403,-2.41216 -6.1414,-0.0202 -8.7316,0.36659 -13.8312,2.06554 -13.12481,4.37261 -22.66141,15.86025 -27.09061,32.63299 -2.0869,7.90243 -2.7584,14.66653 -2.5052,25.23296 0.3252,13.56602 2.3019,22.46506 7.1176,32.04205 5.9055,11.74416 15.04591,18.84893 27.82941,21.63152 3.5391,0.77033 12.8995,0.77901 17.0355,0.0157 9.743,-1.79799 16.5985,-5.3832 22.8045,-11.92624 4.4233,-4.66346 7.9749,-10.6216 10.3728,-17.40106 1.072,-3.0312 1.0785,-3.04029 2.2312,-3.13933 l 1.156,-0.0993 v 12.79613 12.79616 l -1.8512,1.12457 c -3.53,2.14435 -10.9625,5.57107 -14.9845,6.90855 -4.6745,1.55449 -10.8635,2.97068 -16.1243,3.68972 -4.2913,0.58656 -16.1448,0.87556 -20.3493,0.4962 z m 80.35924,-0.049 c -4.6787,-0.68147 -8.7663,-2.86576 -11.2523,-6.01277 -2.8357,-3.58966 -3.948,-6.84256 -3.9538,-11.56371 -0.01,-5.50541 1.266,-8.61782 5.1097,-12.49427 3.6873,-3.71882 8.8277,-6.34179 15.8465,-8.08605 5.1073,-1.26922 8.4314,-1.75734 17.84,-2.61984 l 2.16,-0.19802 v -11.78636 c 0,-15.30596 -0.397,-17.5753 -3.5463,-20.27095 -1.8008,-1.54144 -3.7043,-2.13174 -6.874,-2.13174 -3.5514,0 -5.6455,0.70915 -7.5408,2.55363 -1.8803,1.83002 -2.2224,3.26944 -1.9785,8.32637 0.1998,4.14422 -0.059,5.51542 -1.4562,7.71881 -1.296,2.04362 -3.2814,2.98263 -6.2842,2.9722 -3.2412,-0.0112 -5.4804,-1.33472 -6.9893,-4.13101 -0.562,-1.04144 -0.6907,-1.81805 -0.6907,-4.16685 0,-2.61133 0.099,-3.0888 1.0418,-5.00294 2.6438,-5.37012 9.7398,-9.53136 18.7433,-10.99162 3.8197,-0.61952 10.9317,-0.60941 15.1811,0.0214 10.9297,1.62288 16.6222,5.92675 18.8452,14.24806 0.4865,1.82125 0.5684,4.80234 0.7283,26.53178 0.1764,23.95088 0.1945,24.50419 0.8376,25.59891 0.3615,0.61539 1.1535,1.45738 1.76,1.87104 0.9524,0.64963 1.3865,0.73267 3.1853,0.60935 2.4331,-0.16679 3.8209,-0.79034 5.6212,-2.5256 1.4252,-1.37367 2.5796,-1.45572 2.1918,-0.15581 -0.5727,1.91929 -2.396,5.01334 -3.9323,6.6727 -4.6642,5.03783 -14.3433,6.52611 -21.4081,3.29175 -3.6371,-1.66512 -5.9511,-4.34176 -6.9862,-8.08119 l -0.5533,-1.99885 -1.3472,1.99885 c -0.7409,1.09936 -2.1571,2.79085 -3.1471,3.75885 -5.108,4.99453 -12.9572,7.23731 -21.1515,6.04371 z m 17.0402,-8.12707 c 2.817,-0.66416 4.3881,-1.54807 6.7034,-3.77139 l 2.0065,-1.92669 v -12.58128 -12.58128 l -1.04,0.17392 c -7.2088,1.20557 -12.0844,3.35654 -15.6181,6.89024 -3.7856,3.78563 -5.291,7.79193 -5.0269,13.37849 0.1861,3.9384 1.0249,6.18528 3.1072,8.32304 2.3851,2.44868 5.533,3.11696 9.8679,2.09495 z m 71.3511,8.00035 c -4.6995,-0.8927 -8.2207,-2.73277 -11.18,-5.8424 -3.0471,-3.20176 -4.4196,-6.24192 -5.2346,-11.59459 -0.3738,-2.4552 -0.4632,-7.85677 -0.4647,-28.08 v -25.03997 h -6.56 -6.56 v -2.08 -2.08 h 6.5538 6.5537 l 0.086,-6.95174 0.086,-6.95178 9.76,-6.83098 9.76,-6.831 0.083,13.78275 0.083,13.78275 h 13.1166 13.1166 v 2.08 2.08 h -13.12 -13.12 v 25.84 c 0.01,28.15526 0.01,28.16918 1.829,31.51875 1.6186,2.97379 4.5978,4.67427 8.6797,4.95405 5.3589,0.3673 8.9442,-1.67674 13.4582,-7.6728 0.7619,-1.012 1.5519,-1.84 1.7556,-1.84 0.2037,0 0.6926,0.22573 1.0865,0.5016 l 0.7162,0.50163 -1.2805,2.46131 c -3.6634,7.04138 -9.5647,12.0393 -16.3387,13.83754 -3.2477,0.86211 -9.5526,1.08499 -12.8696,0.45491 z m 49.957,0.16218 c -4.1814,-0.66512 -7.6428,-2.29444 -10.1056,-4.75687 -3.2777,-3.27712 -4.8891,-6.92921 -5.135,-11.6376 -0.4452,-8.52531 3.2036,-14.17763 12.0147,-18.61149 5.9103,-2.97414 13.4866,-4.6223 26.7077,-5.81011 l 2.16,-0.19405 -0.01,-12.05452 c -0.01,-12.73892 -0.1978,-14.91684 -1.5475,-17.56244 -0.9033,-1.77059 -2.8735,-3.4366 -4.8343,-4.0879 -2.5416,-0.84416 -7.3016,-0.57037 -9.4527,0.54374 -3.4854,1.80525 -4.0989,3.25786 -4.0341,9.55229 0.052,5.0537 -0.2536,6.55792 -1.7234,8.48506 -1.8436,2.41693 -6.7119,3.33382 -9.6328,1.81414 -3.9538,-2.05712 -5.257,-6.85485 -3.2899,-12.11229 1.0725,-2.86646 4.6294,-6.25888 8.6002,-8.20236 5.4547,-2.66976 10.5972,-3.76477 17.6809,-3.76477 9.9935,0 17.9533,2.30489 22.1719,6.42019 1.8145,1.77005 3.3221,4.39616 4.2758,7.44813 l 0.8162,2.61168 0.1676,24.48 c 0.162,23.66301 0.189,24.52259 0.8076,25.75577 0.352,0.70167 1.144,1.61565 1.76,2.03104 0.9672,0.65223 1.4038,0.73575 3.2,0.61216 2.4191,-0.1664 4.1934,-0.9696 5.8031,-2.62684 0.7636,-0.78612 1.2945,-1.08996 1.6598,-0.94976 0.2954,0.11334 0.5371,0.35558 0.5371,0.5383 0,0.99862 -2.4786,5.26058 -4.0405,6.94758 -5.8094,6.27492 -18.3063,6.85565 -24.9599,1.15991 -1.4041,-1.20192 -3.0939,-4.21575 -3.6562,-6.52099 l -0.335,-1.3728 -1.3417,2.0128 c -2.2028,3.30476 -5.0798,5.86931 -8.3797,7.46982 -1.5878,0.77014 -3.823,1.62624 -4.967,1.9024 -2.5299,0.61075 -8.4604,0.87126 -10.9217,0.47978 z m 16.9319,-8.16253 c 2.817,-0.66416 4.3881,-1.54807 6.7034,-3.77139 l 2.0065,-1.92669 v -12.56915 -12.56919 l -1.2,0.18288 c -2.8127,0.42867 -7.4362,1.77677 -9.5173,2.77504 -7.5957,3.64355 -11.4336,9.85075 -10.9641,17.73271 0.4771,8.01017 5.469,11.91462 12.9715,10.14579 z m 193.8299,8.03161 c -6.4063,-1.25228 -10.2849,-4.12115 -12.961,-9.58694 -2.0235,-4.13286 -2.4006,-8.8545 -1.0712,-13.41203 2.0092,-6.88797 9.1726,-12.23309 20.237,-15.10016 3.8831,-1.00621 16.3619,-2.72912 19.7666,-2.72912 0.3497,0 0.4275,-1.95981 0.4229,-10.64 -0.01,-10.36067 -0.2528,-14.85149 -0.9503,-17.25674 -0.5934,-2.04627 -2.2609,-4.12947 -4.1499,-5.18441 -1.5174,-0.84746 -2.1363,-0.9921 -4.7305,-1.10557 -4.7306,-0.20691 -7.9734,1.11779 -9.425,3.85021 -0.6748,1.27001 -0.7323,1.78496 -0.7438,6.65651 -0.014,5.7248 -0.1961,6.54544 -1.9066,8.57401 -3.2235,3.82304 -9.992,3.23431 -12.5259,-1.08947 -1.1325,-1.93254 -1.4151,-5.53597 -0.6425,-8.19363 1.7428,-5.99488 9.2983,-10.89731 19.3974,-12.58598 2.6131,-0.43696 4.4544,-0.5122 9.0803,-0.37098 8.5956,0.2624 13.4745,1.5007 18.2189,4.62422 3.4716,2.28548 5.5404,5.5145 6.8181,10.64183 0.557,2.23481 0.5984,4.03011 0.6018,26.08608 v 23.68611 l 0.8,1.55613 c 0.9606,1.86838 2.4044,2.75168 4.4981,2.75168 2.1515,0 4.2554,-0.83744 5.9801,-2.38032 2.4198,-2.16471 2.9811,-1.4072 1.4083,1.90032 -2.0312,4.27161 -4.8746,6.77923 -9.4865,8.36649 -2.2439,0.77229 -3.0538,0.88308 -6.56,0.89728 -3.1183,0.0128 -4.3879,-0.11696 -5.76,-0.58803 -5.6117,-1.92665 -8.2648,-4.48473 -9.5924,-9.24902 l -0.5164,-1.85331 -1.5448,2.26089 c -3.0649,4.48557 -7.2304,7.43421 -12.6664,8.96615 -3.0982,0.87308 -8.8797,1.11776 -12,0.5078 z m 19.1146,-8.47577 c 2.296,-0.79383 4.2748,-2.14237 5.9707,-4.06906 l 1.3147,-1.49353 v -12.25607 c 0,-6.74083 -0.1197,-12.33001 -0.266,-12.42045 -0.4813,-0.29744 -6.5656,1.11168 -9.014,2.08765 -6.128,2.44269 -10.4132,6.81504 -12.0341,12.27898 -0.7846,2.64464 -0.7754,7.40979 0.019,9.76 1.6901,5.00137 4.8437,7.22889 9.7753,6.90461 1.32,-0.0868 3.2256,-0.44327 4.2346,-0.79213 z m -607.35555,-52.9124 0.081,-59.6 h 9.76 9.76 l 0.081,59.6 0.081,59.6 h -9.9217 -9.9217 z m 41.2009,23.11536 v -36.48461 l 9.84,0.0846 9.84,0.0846 0.081,36.4 0.081,36.4 h -9.9213 -9.9214 z m 406.15865,0.0846 0.081,-36.4 9.84,-0.0846 9.84,-0.0846 v 36.4846 36.48464 h -9.9214 -9.9213 z m 51.4331,12.32 c 0,-13.244 -0.1449,-25.48544 -0.312,-27.2032 -0.7784,-8.00157 -3.3978,-12.74653 -8.3197,-15.07094 -1.7463,-0.82471 -2.5625,-1.00346 -5.0877,-1.11431 -7.4267,-0.32608 -12.6232,2.79143 -16.5541,9.93114 -0.9618,1.74685 -1.0825,1.86717 -0.9009,0.89731 0.3319,-1.7719 1.3819,-4.73757 2.3676,-6.68768 2.9065,-5.74976 7.6696,-9.68016 14.5216,-11.98288 2.8241,-0.94912 3.1423,-0.9863 8.5335,-0.99766 6.4596,-0.0138 8.1338,0.31424 12.476,2.44304 2.1352,1.04675 3.2676,1.88476 5.295,3.91836 3.9444,3.95639 6.1869,8.96772 7.1673,16.01623 0.2191,1.57526 0.3417,11.69219 0.3417,28.19376 v 25.73687 h -9.76 -9.76 l -0.01,-24.08 z m 40.3283,-12.4 v -36.48 h 9.76 9.76 v 36.48 36.48 h -9.76 -9.76 z m -1094.83919,8.55011 c -0.58219,-0.91856 -1.58556,-2.50089 -2.22971,-3.51632 -0.64414,-1.01542 -1.1656,-1.95142 -1.15879,-2.08 0.007,-0.12857 4.41406,-2.96979 9.7939,-6.31379 5.37983,-3.344 10.96346,-6.81926 12.40807,-7.72278 l 2.62654,-1.64279 2.28842,3.64579 2.28841,3.64583 -1.34886,0.85744 c -0.74187,0.47158 -6.35749,3.99379 -12.47915,7.8271 l -11.1303,6.96967 z m 331.99371,-11.48137 c -1.80051,-1.34317 -2.59641,-2.13335 -2.49805,-2.48 0.176,-0.6201 11.64439,-20.98874 11.81754,-20.98874 0.1695,0 24.5513,13.67994 25.11402,14.09072 0.37286,0.27222 0.0955,0.96573 -1.56756,3.91946 -1.11129,1.97382 -2.15155,3.58899 -2.31164,3.58928 -0.1601,2.8e-4 -4.52567,-2.37805 -9.70128,-5.28519 -5.17562,-2.90717 -9.52839,-5.21267 -9.67284,-5.12339 -0.14448,0.0893 -2.04182,3.33184 -4.21632,7.20573 -2.17449,3.87385 -4.03641,7.04339 -4.13753,7.04339 -0.10115,0 -1.37299,-0.88707 -2.82634,-1.97126 z M 473.02603,370.3378 c -9.23197,-0.969 -19.04269,-4.61242 -26.4,-9.8042 -4.49344,-3.17084 -10.21469,-9.03385 -13.20541,-13.5327 -3.04544,-4.58109 -5.62051,-10.08896 -7.1367,-15.2647 -0.0122,-0.0415 -2.74659,-0.224 -6.07655,-0.4056 -16.94992,-0.92429 -27.29011,-4.43354 -33.80806,-11.4737 -3.6393,-3.93088 -5.33584,-8.20541 -5.6064,-14.12563 -0.21133,-4.62461 0.11606,-7.12791 2.46902,-18.87965 2.58647,-12.91789 2.90426,-15.21149 3.11085,-22.45123 0.19843,-6.95421 -0.11341,-10.59773 -1.35747,-15.86173 -3.03757,-12.85248 -11.21568,-24.83882 -22.6567,-33.2071 l -2.18743,-1.59994 2.82743,-0.26096 c 4.90281,-0.45251 18.24665,-0.0369 23.30742,0.72595 23.52723,3.54653 43.14544,14.83456 57.97885,33.36029 15.89824,19.85555 26.98179,50.62845 29.23565,81.1712 0.18656,2.52806 0.27795,4.65773 0.2031,4.73261 -0.24307,0.24307 -4.46096,-1.48109 -7.24048,-2.95971 -4.0112,-2.13383 -7.38938,-4.66602 -11.48566,-8.60938 -5.55568,-5.34826 -8.9592,-9.54522 -16.99754,-20.96 -4.6329,-6.57888 -5.40515,-7.45843 -7.53392,-8.58051 -2.19056,-1.15466 -5.72134,-1.20317 -7.79622,-0.10711 -4.52932,2.39268 -6.24554,7.07904 -4.39396,11.99821 1.49892,3.98227 5.49408,10.38218 10.14439,16.2504 3.14118,3.96387 10.26208,11.14375 14.04579,14.16215 6.46758,5.15939 14.72214,9.78921 21.73776,12.19225 6.03222,2.06618 10.20627,2.76288 17.70054,2.9544 4.26784,0.10909 7.75306,0.0324 9.76,-0.21485 24.61984,-3.03257 41.59261,-17.2864 53.74452,-45.13494 l 0.76796,-1.76 -0.17427,1.55645 c -0.51545,4.60361 -2.79929,12.58493 -5.50653,19.24355 -2.95228,7.26141 -8.14486,16.06256 -13.10051,22.20474 -14.21229,17.61507 -34.35139,26.74256 -54.36947,24.64144 z M 432.17537,270.2545 c 0.47882,-1.59811 0.46176,-3.64397 -0.0467,-5.60483 l -0.40502,-1.56195 -6.82861,-2.35805 c -3.75574,-1.29693 -6.9727,-2.35805 -7.1488,-2.35805 -0.956,0 1.50589,5.71632 3.39645,7.88627 1.54131,1.76909 4.29683,3.55879 6.8873,4.47325 3.10947,1.09766 3.69385,1.03046 4.1454,-0.47664 z m -213.80053,99.1576 c -4.63828,-0.81974 -8.78799,-4.2728 -11.23812,-9.35146 -1.96634,-4.07584 -2.52464,-6.43808 -2.37062,-10.03049 0.15219,-3.54983 1.07379,-5.624 3.61314,-8.13181 l 1.68373,-1.66282 2.07806,3.74048 2.07805,3.74052 -1.07653,1.59971 c -1.42191,2.11296 -1.4695,4.06365 -0.16632,6.8183 1.61816,3.42042 3.97888,4.84599 7.55018,4.55933 4.09012,-0.32832 7.77656,-3.12627 8.52491,-6.47024 0.33427,-1.49366 0.29965,-1.96051 -0.28875,-3.89456 -1.17721,-3.86944 -3.24829,-5.87744 -6.06203,-5.87744 h -1.26876 l -1.60636,-3.92 c -1.24016,-3.02634 -1.51077,-3.97526 -1.18704,-4.16237 1.00843,-0.58291 4.21224,-0.63085 6.08976,-0.0911 4.10686,1.18051 6.99512,3.9272 9.41709,8.95545 3.07548,6.38499 3.35335,11.56839 0.87245,16.27488 -2.7663,5.24797 -10.60525,8.97066 -16.64284,7.90365 z m 351.77119,-20.04426 c 0,-0.11209 0.57754,-2.04124 1.28339,-4.287 l 1.28339,-4.08324 2.95044,-0.27299 2.95046,-0.27299 2.00378,-6.4 2.00377,-6.4 -0.88278,-0.8 c -0.48551,-0.44 -1.50618,-1.31392 -2.26813,-1.94205 l -1.38538,-1.14208 1.22039,-4.05792 c 0.67123,-2.23187 1.31216,-4.05795 1.42425,-4.05795 0.23344,0 23.85424,20.32886 24.06349,20.70986 0.11047,0.20115 -2.54745,9.27852 -2.81894,9.62716 -0.0539,0.0693 -31.09715,3.57146 -31.74813,3.58173 -0.044,0 -0.08,-0.0905 -0.08,-0.20253 z m 21.82061,-9.82732 c 2.40934,-0.21088 4.45817,-0.46103 4.55296,-0.55581 0.0948,-0.0948 -1.72631,-1.7057 -4.04691,-3.57975 -2.32061,-1.87408 -4.26708,-3.35961 -4.32548,-3.30118 -0.0584,0.0584 -0.65936,1.85254 -1.33548,3.98701 l -1.22928,3.88083 1.00179,-0.0237 c 0.55097,-0.0131 2.97305,-0.19635 5.3824,-0.40726 z m -247.09648,-9.78343 c -0.80749,-3.6656 -3.72829,-8.34345 -7.10538,-11.37974 -4.12809,-3.71152 -7.05833,-5.02237 -18.54613,-8.29661 -12.28134,-3.50045 -16.43114,-5.00579 -22.78869,-8.26672 -11.10718,-5.69709 -21.51343,-15.38781 -27.56405,-25.66867 -10.88419,-18.49383 -10.0643,-42.73037 2.05345,-60.70176 1.22824,-1.8216 2.59032,-3.74397 3.02684,-4.27197 l 0.79366,-0.96 -0.17668,2.4 c -0.23455,3.18614 0.39576,9.4655 1.3427,13.37626 1.96729,8.12467 5.72826,14.67411 11.98086,20.86374 6.67944,6.61216 10.06579,8.54106 28.44012,16.19974 19.13603,7.97616 27.42183,12.05796 35.57917,17.52724 4.35267,2.91833 10.17869,8.65811 12.31328,12.13097 3.95142,6.42883 4.74579,13.5497 2.34502,21.02205 -2.96073,9.2153 -10.66892,16.14435 -19.49958,17.52861 l -1.80128,0.28237 z m -148.28051,-4.84873 c -0.49708,-2.30077 -0.85424,-4.22135 -0.7937,-4.26788 0.16828,-0.1294 27.90035,-6.27504 28.30109,-6.27174 0.36136,0.003 2.24617,7.91235 1.95493,8.20362 -0.10797,0.10796 -28.17794,6.51708 -28.55224,6.51923 -0.003,0 -0.413,-1.88243 -0.91008,-4.18323 z m 631.5679,0.21769 c -4.3774,-1.42861 -7.3681,-4.88365 -8.1002,-9.35779 -1.2866,-7.86192 5.9217,-14.82518 13.6877,-13.2225 2.4287,0.50122 3.9881,1.32535 5.9332,3.13556 6.0501,5.63056 4.2346,15.53929 -3.4777,18.98064 -1.9628,0.8758 -6.0575,1.11209 -8.043,0.46409 z m 497.61225,0.003 c -1.9265,-0.62889 -3.3261,-1.57325 -5.0279,-3.39257 -2.2547,-2.41047 -2.8653,-4.03376 -2.8929,-7.69079 -0.021,-2.82096 0.055,-3.20358 1.0309,-5.1872 2.0097,-4.08441 5.7459,-6.42054 10.3062,-6.44409 4.0605,-0.0211 7.4229,1.64963 9.739,4.83872 1.6005,2.2038 2.2105,4.41913 2.0346,7.38864 -0.1822,3.0768 -0.9962,4.95964 -3.1107,7.19542 -2.3458,2.48035 -4.611,3.50499 -8.0229,3.62909 -1.6932,0.0616 -3.2244,-0.0657 -4.0563,-0.33722 z M 581.79025,306.77162 c 0.11671,-1.54 0.29751,-3.6137 0.40173,-4.60822 l 0.18954,-1.8082 5.04733,-2.40585 c 2.77606,-1.32323 5.11878,-2.52554 5.20611,-2.67181 0.0873,-0.14624 0.26067,-1.71562 0.38525,-3.48749 l 0.22649,-3.22157 -4.86982,-0.36457 c -2.6784,-0.20051 -4.92035,-0.41511 -4.98211,-0.47687 -0.14813,-0.14812 0.51024,-7.70105 0.68665,-7.87747 0.15427,-0.15427 28.92679,2.07757 29.10701,2.25776 0.25581,0.25584 -1.16733,16.26263 -1.64518,18.50429 -1.27511,5.98144 -4.07514,8.64 -9.09981,8.64 -1.39594,0 -3.06163,-0.21322 -3.85719,-0.49373 -1.68444,-0.59392 -3.52646,-2.31472 -4.28982,-4.00755 l -0.55862,-1.23878 -5.82631,3.03001 c -3.20448,1.66653 -5.94045,3.03005 -6.0799,3.03005 -0.13949,0 -0.15808,-1.26 -0.0413,-2.8 z m 22.53687,-6.26083 c 0.96403,-0.76135 1.40141,-2.36391 1.73571,-6.35943 0.2735,-3.26918 0.26294,-4.20976 -0.0493,-4.40278 -0.46413,-0.28685 -6.17063,-0.70045 -6.40672,-0.46435 -0.088,0.088 -0.29664,2.07142 -0.46362,4.40752 -0.27862,3.8991 -0.25325,4.35049 0.30966,5.50368 0.88884,1.82083 3.38231,2.49373 4.87431,1.31536 z m -411.59045,3.2519 c -0.0864,-0.41309 -0.24747,-2.35008 -0.35785,-4.30441 l -0.20069,-3.55338 2.02395,-0.19347 c 1.11317,-0.10643 6.02317,-0.44493 10.91111,-0.75219 4.88794,-0.3073 9.00118,-0.63722 9.14054,-0.73316 0.21958,-0.1512 -0.10646,-6.66915 -0.71938,-14.3816 l -0.18812,-2.3671 3.43912,0.22234 c 1.89152,0.1223 3.52733,0.32348 3.63514,0.44713 0.23593,0.27053 1.73562,24.00135 1.52979,24.20717 -0.0792,0.0792 -5.6835,0.50998 -12.45409,0.95734 -6.77059,0.4474 -13.27591,0.90096 -14.45626,1.00791 -2.06429,0.1871 -2.1521,0.16589 -2.30326,-0.55658 z m 175.3893,-25.1575 c -10.56048,-10.06048 -19.61882,-15.29779 -43.41994,-25.10442 -5.544,-2.28425 -11.85925,-4.95414 -14.03388,-5.93312 -12.79206,-5.75853 -20.09755,-13.72355 -23.12938,-25.21747 -0.65732,-2.49197 -0.75266,-3.57674 -0.74337,-8.45856 0.01,-5.00022 0.10335,-5.97014 0.8763,-9.05591 1.41965,-5.66759 3.85845,-10.21311 7.82802,-14.59007 l 1.85554,-2.04598 26.88611,16.5481 c 14.78735,9.10146 28.46437,17.71679 30.3934,19.1452 4.48816,3.32346 9.74115,8.59188 12.04326,12.07866 3.40918,5.16358 6.21498,11.39411 7.34934,16.32 0.83242,3.61466 1.1394,11.63648 0.60778,15.88275 -0.43392,3.46611 -1.8281,9.30275 -2.81309,11.77693 l -0.62886,1.57965 z m 215.45926,-10.07357 c 0,-0.22 -0.71014,-5.94227 -1.57715,-12.71619 -0.86701,-6.77389 -1.52467,-12.36787 -1.46147,-12.43104 0.0632,-0.0632 6.61824,-0.94189 14.56681,-1.95271 9.81776,-1.24848 14.48547,-1.72592 14.55651,-1.48892 0.25453,0.84912 3.1432,24.82841 3.00733,24.96428 -0.25197,0.25197 -6.05737,0.92509 -6.25699,0.72548 -0.10202,-0.10199 -0.6464,-3.8624 -1.20982,-8.35648 -0.5634,-4.49405 -1.08736,-8.22948 -1.16439,-8.30087 -0.13424,-0.12448 -4.17821,0.3616 -4.32397,0.51975 -0.0389,0.0422 0.34183,3.2447 0.84605,7.1167 0.50423,3.872 0.92154,7.48493 0.92733,8.0287 l 0.0106,0.98871 -3.08544,0.37917 c -1.69702,0.20854 -3.1408,0.32387 -3.20842,0.25625 -0.12214,-0.12217 -2.02041,-14.69008 -2.02419,-15.53417 0,-0.35514 -0.4551,-0.39744 -2.32195,-0.21652 -1.276,0.12365 -2.42778,0.32922 -2.55949,0.45684 -0.13174,0.12761 0.26394,4.11305 0.87927,8.85651 0.61532,4.74349 1.1191,8.73251 1.11948,8.86451 0,0.132 -1.51126,0.24 -3.35926,0.24 -2.47424,0 -3.36022,-0.10544 -3.3608,-0.4 z m -378.13527,-2.44445 c -7.24684,-0.63856 -13.25253,-1.23747 -13.34597,-1.33094 -0.0934,-0.0934 -0.008,-2.00019 0.19072,-4.23725 l 0.36063,-4.06736 h 1.01932 c 0.56062,0 6.903,0.504 14.09415,1.12 7.19117,0.616 13.34865,1.12 13.68331,1.12 0.55354,0 0.59113,0.18054 0.41639,2 -0.10565,1.1 -0.28503,3.044 -0.39863,4.32 l -0.20654,2.32 -1.31866,-0.0417 c -0.72525,-0.023 -7.24788,-0.56416 -14.49472,-1.20275 z m 555.57609,-8.21555 c -8.5548,-1.16042 -15.6644,-3.72733 -21.9175,-7.91338 -4.9689,-3.3264 -10.1658,-9.36259 -13.1072,-15.22409 -1.4958,-2.9809 -3.4267,-9.00263 -4.2285,-13.1873 -0.6934,-3.61808 -0.7016,-4.06585 -0.8174,-44.05523 l -0.117,-40.4 h 10.7234 10.7235 l 0.1009,41.2 c 0.1118,45.60483 0,43.00813 2.2156,49.98573 3.6226,11.39139 11.8047,18.70838 23.505,21.01984 4.121,0.81414 12.0502,0.75699 16.1192,-0.11616 14.9125,-3.20007 23.7248,-14.5673 25.5855,-33.00333 0.2121,-2.10128 0.3345,-17.17719 0.3345,-41.19998 v -37.8861 h 3.2 3.2 v 37.52 c 0,22.37463 -0.1322,39.00547 -0.3234,41.2 -1.2047,13.8271 -5.2721,23.71104 -12.7735,31.04 -6.3154,6.17018 -14.1019,9.67018 -24.5645,11.0417 -4.4757,0.58672 -13.4509,0.5758 -17.8559,-0.0218 z m 308.80005,0.0475 c -17.4193,-2.90762 -28.4612,-14.26038 -31.0679,-31.94282 -0.6922,-4.69507 -0.4664,-12.53849 0.4795,-16.6568 3.5959,-15.65703 15.6247,-26.78181 31.5539,-29.18265 19.2464,-2.90081 35.4047,7.44706 38.6925,24.77894 0.2761,1.45559 0.502,3.35059 0.502,4.21117 v 1.56466 h -25.44 -25.44 v 5.15894 c 0,15.44554 4.5928,25.61044 13.5582,30.00752 7.2291,3.54554 17.4172,2.89053 25.0889,-1.61299 2.7463,-1.61219 7.3674,-6.35664 9.1349,-9.37875 0.8187,-1.39994 1.7427,-3.17274 2.0533,-3.93962 0.5234,-1.29232 0.6342,-1.3807 1.5147,-1.2087 0.5225,0.10208 1.056,0.29162 1.1856,0.42115 0.3138,0.31383 -1.3931,5.33808 -2.9217,8.60007 -4.4746,9.54848 -12.0739,15.95587 -22.028,18.57302 -2.6343,0.69261 -3.9561,0.83312 -8.7059,0.92541 -3.6751,0.0714 -6.4799,-0.0381 -8.16,-0.31853 z m 21.3447,-53.7875 c -0.3982,-10.70334 -3.7946,-18.27583 -9.0847,-20.2551 -5.3921,-2.01743 -10.9109,-0.68384 -14.9241,3.60627 -3.7891,4.05049 -6.0704,9.53501 -7.5587,18.17184 l -0.2073,1.20297 15.935,-0.083 15.9351,-0.083 z m 112.4153,54.05174 c -7.3324,-0.99446 -10.8677,-1.92153 -14.5099,-3.80489 -3.5586,-1.84016 -5.8492,-3.84887 -6.9465,-6.09159 -0.7375,-1.50742 -0.8387,-2.05891 -0.7302,-3.97884 0.1038,-1.83668 0.2937,-2.46749 1.0792,-3.58516 1.1853,-1.68643 3.4443,-2.89356 5.777,-3.087 4.5597,-0.37815 7.4411,2.03929 11.7471,9.85574 1.5581,2.82838 3.6453,5.10979 5.7057,6.23696 1.4832,0.8113 2.1325,0.95645 4.7576,1.06355 2.4994,0.10199 3.4052,0 5.0935,-0.56966 5.3171,-1.79616 8.5541,-6.03472 8.9051,-11.66016 0.2935,-4.70461 -1.1548,-8.49799 -4.3847,-11.48413 -2.2986,-2.12522 -4.8187,-3.3359 -10.4139,-5.00298 -12.9781,-3.86681 -16.7924,-5.72313 -21.0644,-10.25168 -2.6643,-2.82432 -4.1981,-5.90176 -4.8512,-9.73382 -0.5912,-3.46862 -0.5925,-4.74607 -0.01,-8.02668 2.1201,-11.89993 15.4102,-19.15042 32.563,-17.76499 9.3117,0.75212 16.5886,3.26207 20.3329,7.01325 3.3833,3.38951 3.0892,8.35526 -0.6412,10.82387 -1.0566,0.69923 -1.7675,0.89213 -3.6356,0.98646 -1.2772,0.0645 -2.8378,-0.0529 -3.4682,-0.26096 -1.6972,-0.56012 -3.7564,-2.82212 -5.3051,-5.82736 -1.7688,-3.43254 -3.8154,-6.32115 -5.2584,-7.42177 -2.0506,-1.56414 -3.2886,-1.91947 -6.7604,-1.94046 -3.0943,-0.0187 -3.3097,0.0266 -5.6627,1.1895 -2.6492,1.30928 -4.1836,2.81221 -5.4189,5.3075 -0.617,1.24624 -0.735,1.99545 -0.7382,4.68356 0,2.94221 0.079,3.37466 1.0233,5.36808 2.2079,4.66119 6.1244,7.06312 16.2822,9.98565 10.6588,3.06669 15.2318,5.29965 19.3777,9.46198 4.0588,4.07475 5.7037,8.36167 5.7037,14.86429 0,4.21501 -0.5639,6.85334 -2.0792,9.72701 -3.5518,6.73609 -9.7101,10.93939 -19.3513,13.20809 -2.1567,0.50749 -4.1117,0.66144 -9.44,0.74343 -3.696,0.0569 -7.152,0.0448 -7.68,-0.0269 z m 115.2,-0.3352 c -5.807,-1.22179 -11.1167,-5.08534 -13.3921,-9.7447 -2.6571,-5.44102 -2.7679,-6.87725 -2.7679,-35.88346 v -24.56838 h -6.56 -6.56 v -2.08 -2.08 h 6.56 6.56 v -6.99117 -6.99117 l 9.4621,-6.62736 c 5.2042,-3.64505 9.6682,-6.70643 9.92,-6.80307 0.3928,-0.15073 0.4579,1.78471 0.4579,13.61853 v 13.79424 h 13.2953 13.2952 l -0.095,2 -0.095,2 -13.2,0.0836 -13.2,0.0836 v 25.67645 c 0,21.52403 0.081,26.0009 0.4777,27.68259 0.9403,3.98839 2.7696,6.43101 5.9013,7.88004 1.2016,0.556 2.0718,0.67382 4.9763,0.67382 3.1584,0 3.71,-0.089 5.3699,-0.86688 2.0617,-0.96605 4.9644,-3.57424 7.0081,-6.29702 0.7415,-0.98784 1.4472,-1.91636 1.5683,-2.06333 0.2375,-0.28829 2.2137,0.60729 2.2137,1.0032 0,0.13174 -0.6181,1.32403 -1.3734,2.64953 -3.3364,5.8546 -7.7659,10.18493 -12.6357,12.35284 -4.2435,1.88905 -12.085,2.57248 -17.1909,1.4982 z m 49.28,0.04 c -2.5334,-0.52295 -6.1329,-2.19773 -7.9211,-3.68564 -1.7469,-1.4535 -4.0636,-4.85718 -4.9715,-7.30409 -1.0555,-2.84448 -1.3094,-7.59991 -0.5732,-10.73389 2.0579,-8.76067 11.0466,-14.80045 25.7858,-17.32611 4.0652,-0.69661 10.6072,-1.41971 12.88,-1.42365 l 1.84,-0.003 -0.01,-12.24 c 0,-9.28795 -0.1143,-12.75277 -0.4562,-14.36607 -0.806,-3.80267 -2.1845,-5.69593 -5.1383,-7.05677 -1.3494,-0.62172 -2.1261,-0.73686 -4.96,-0.73526 -3.0944,0.002 -3.5106,0.0778 -5.2661,0.96188 -1.2947,0.65208 -2.2184,1.40403 -2.88,2.34444 l -0.9739,1.38446 -0.1628,5.81366 c -0.1457,5.2024 -0.2373,5.9534 -0.8707,7.14271 -2.6708,5.01453 -10.2523,5.3794 -13.3246,0.64126 -2.3056,-3.55587 -1.6352,-8.91832 1.6164,-12.92819 1.2827,-1.58186 4.2499,-3.76066 6.9817,-5.12679 9.4363,-4.7188 25.0861,-4.79343 34.7169,-0.16556 4.8746,2.34238 7.5368,5.57661 9.1809,11.15359 0.5035,1.70799 0.5761,4.3315 0.7306,26.37664 0.1895,27.02758 0.091,25.81309 2.2327,27.61494 0.8942,0.75245 1.3082,0.86506 3.1807,0.86506 2.541,0 4.8804,-0.99462 6.3941,-2.71862 0.8305,-0.94589 1.0142,-1.02458 1.5233,-0.65229 0.5464,0.39949 0.5001,0.5824 -0.8213,3.24921 -3.0234,6.10132 -8.234,9.08932 -15.8291,9.07696 -4.8448,-0.008 -9.1695,-1.45014 -11.9905,-3.99878 -1.3425,-1.21286 -3.038,-4.16195 -3.4015,-5.91648 -0.3643,-1.75856 -0.4751,-1.75491 -1.6823,0.0551 -0.6253,0.93766 -2.18,2.73801 -3.4548,4.00076 -2.5037,2.47997 -5.85,4.36237 -9.5797,5.389 -2.6864,0.73945 -9.879,0.91459 -12.8,0.31168 z m 18.8225,-7.99504 c 2.7107,-0.70605 4.2913,-1.6241 6.363,-3.69588 l 1.8545,-1.85446 v -12.54246 -12.54247 l -1.8368,0.22947 c -1.0102,0.12621 -3.0551,0.58256 -4.5442,1.01408 -9.5616,2.77085 -15.379,9.59114 -15.379,18.03018 0,5.64755 2.3963,9.9855 6.2808,11.37018 1.6466,0.58694 4.9904,0.58294 7.2617,-0.009 z m -549.54255,-29.9215 v -36.48 h 9.7549 9.755 l 0.085,8.88 0.085,8.88 0.7333,-2.72 c 2.0226,-7.50256 6.3302,-12.83805 13.0452,-16.15808 3.9078,-1.93209 6.6647,-2.50811 12.1415,-2.53679 5.7515,-0.0301 8.5327,0.51768 12.3638,2.43525 6.3219,3.1642 10.3932,9.05966 12.2165,17.69001 0.6589,3.11921 0.6784,3.9577 0.6888,29.76961 l 0.011,26.56 -9.828,0.0846 -9.8279,0.0846 -0.099,-26.96461 c -0.097,-26.51347 -0.1103,-27.00553 -0.7902,-29.41054 -2.3074,-8.1614 -7.0983,-11.85474 -14.7771,-11.39177 -6.4424,0.38844 -11.4763,4.01972 -14.763,10.64965 l -1.275,2.57194 v 27.26807 27.26806 h -9.76 -9.76 v -36.48 z m 91.52001,0.004 v -36.48464 h 9.9214 9.9213 l -0.081,36.4 -0.081,36.4 -9.84,0.0846 -9.84,0.0846 z m 62.1031,35.75536 c -0.1546,-0.396 -7.0033,-16.632 -15.2193,-36.08 -8.216,-19.448 -15.0142,-35.54194 -15.1069,-35.7643 -0.1344,-0.32204 2.0285,-0.38715 10.63,-0.32 l 10.7987,0.0843 10.7012,26.88 c 5.8857,14.784 10.80524,26.98755 10.93224,27.11901 0.1271,0.13149 5.395,-11.89251 11.7066,-26.72 6.3115,-14.82745 11.5739,-27.07295 11.6941,-27.21221 0.1203,-0.13926 1.4499,-0.21126 2.9547,-0.16 l 2.736,0.0932 -13.5682,32.16 c -7.4625,17.688 -14.3759,34.068 -15.363,36.4 l -1.7948,4.24 h -5.41024 c -5.3138,0 -5.4151,-0.0128 -5.6911,-0.72 z m 135.97694,-35.75936 v -36.48 h 9.76 9.76 v 9.77889 c 0,7.02918 0.099,9.71772 0.3519,9.56138 0.2559,-0.15816 0.2559,-0.0381 0,0.44008 -0.2477,0.46283 -0.3519,8.43498 -0.3519,26.91863 v 26.26102 h -9.76 -9.76 z m 131.738,36.27126 c -0.1199,-0.11987 -0.218,-16.53792 -0.218,-36.4846 v -36.26666 h 9.9214 9.9213 l -0.081,36.4 -0.081,36.4 -9.622,0.0846 c -5.2922,0.0465 -9.7202,-0.0134 -9.84,-0.13335 z M 209.82603,239.94955 c -6.776,-5.34669 -12.35861,-9.97699 -12.4058,-10.2896 -0.0472,-0.31257 0.4569,-2.58435 1.12018,-5.04835 l 1.20598,-4.48 15.67982,-2.44208 c 8.6239,-1.34314 15.74191,-2.38506 15.81779,-2.31536 0.24469,0.22474 -1.94401,8.26813 -2.31169,8.49536 -0.19539,0.12077 -1.38605,0.31616 -2.64591,0.43421 -1.25986,0.11808 -2.46026,0.31949 -2.66754,0.44758 -0.20729,0.1281 -1.09345,2.95709 -1.96925,6.28659 -0.8758,3.32954 -1.65055,6.21463 -1.72166,6.4113 -0.1015,0.28074 2.22228,2.23229 4.37779,3.67658 0.27815,0.1864 -1.53159,7.89968 -1.9557,8.33542 -0.11221,0.1153 -5.74801,-4.16496 -12.52401,-9.51165 z m 5.4215,-10.33008 c 0.5615,-2.17366 0.97537,-3.99664 0.91971,-4.05104 -0.20662,-0.20189 -10.83413,1.24298 -10.74934,1.46144 0.0873,0.22496 8.69091,6.69523 8.76843,6.59424 0.0222,-0.0288 0.4997,-1.83097 1.0612,-4.00464 z m 361.52832,-1.11862 c -0.6544,-1.84189 -1.18982,-3.50922 -1.18982,-3.70519 0,-0.19596 2.4272,-4.49353 5.39382,-9.55017 2.9666,-5.05664 5.56282,-9.51632 5.76938,-9.9104 l 0.37558,-0.7165 -2.3294,0.84127 c -11.28842,4.0768 -14.35988,5.12128 -14.48144,4.92457 -0.23975,-0.3879 -2.73255,-7.47671 -2.64784,-7.52967 0.4824,-0.30158 27.49299,-9.81674 27.59033,-9.71938 0.0728,0.0728 0.69763,1.67007 1.38855,3.54954 l 1.25619,3.41722 -5.58602,9.53474 c -3.07232,5.2441 -5.71942,9.78138 -5.88249,10.08285 -0.30698,0.56758 0.0163,0.46368 12.02396,-3.86272 2.45885,-0.88595 4.48807,-1.58259 4.50938,-1.5481 0.25238,0.40861 2.74787,7.63402 2.65984,7.70135 -0.17322,0.13248 -26.31475,9.48761 -27.0464,9.67897 -0.52739,0.13789 -0.78125,-0.31088 -1.80362,-3.18838 z m -355.01273,-27.96027 -12.8629,-6.60869 5.62948,-11.06014 c 3.09621,-6.08308 5.75307,-11.1975 5.90413,-11.36538 0.16911,-0.18794 1.38085,0.23699 3.15343,1.10583 1.58332,0.77608 2.87877,1.44768 2.87877,1.49244 0,0.0448 -1.74419,3.47895 -3.87597,7.63153 -2.13179,4.15258 -3.82379,7.59082 -3.76,7.64052 0.0638,0.0497 0.9301,0.54853 1.92515,1.1085 l 1.80919,1.01812 1.11515,-2.00585 c 0.61333,-1.10323 2.28404,-4.34586 3.7127,-7.20586 1.42865,-2.86 2.67158,-5.2 2.76206,-5.2 0.0905,0 1.44593,0.64357 3.01212,1.43016 l 2.84762,1.43016 -3.68626,7.23092 c -2.02745,3.97701 -3.63575,7.27637 -3.57401,7.33192 0.59258,0.53313 4.24775,2.08418 4.43361,1.88137 0.13334,-0.14549 2.03239,-3.75149 4.22012,-8.01332 l 3.9777,-7.74879 2.62041,1.75437 c 1.44123,0.96491 2.62041,1.91322 2.62041,2.10736 0,0.64013 -11.35288,22.66443 -11.68,22.65892 -0.176,-0.003 -6.10831,-2.97931 -13.18291,-6.61409 z m 925.34298,1.50309 c 0,-0.57669 1.627,-4.61058 2.7619,-6.84778 3.5858,-7.06839 9.41,-11.99266 16.4777,-13.93166 1.8515,-0.50793 6.75,-1.20696 9.0004,-1.28437 0.132,-0.005 0.24,3.81048 0.24,8.47784 v 8.48609 l -0.72,-0.16366 c -2.8728,-0.65299 -4.1702,-0.83931 -7.0504,-1.01253 -1.8344,-0.11032 -4.7863,-0.0318 -6.7249,0.17883 -5.8538,0.63608 -9.7378,2.14777 -12.4265,4.83651 -0.857,0.857 -1.5582,1.42433 -1.5582,1.26073 z M 555.90603,182.70868 c -3.696,-5.87671 -6.72,-10.83368 -6.72,-11.01549 0,-0.27537 23.27469,-15.20475 24.34323,-15.61478 0.44659,-0.17138 14.04768,21.3576 13.65699,21.61749 -2.91568,1.93959 -5.31097,3.25999 -5.4742,3.01765 -0.11332,-0.16823 -2.136,-3.36108 -4.49488,-7.09522 -2.35888,-3.73415 -4.37488,-6.83584 -4.48,-6.89267 -0.10512,-0.0568 -1.01287,0.42192 -2.01722,1.06387 l -1.82605,1.16718 4.30605,6.80613 c 2.36835,3.74337 4.30608,6.85585 4.30608,6.91663 0,0.18754 -5.06707,3.37213 -5.36547,3.37213 -0.1545,0 -2.1904,-3.024 -4.52426,-6.72 -2.33385,-3.696 -4.30697,-6.72 -4.38467,-6.72 -0.0777,0 -1.06195,0.58146 -2.18723,1.29214 l -2.04595,1.29213 4.77379,7.5371 c 2.62557,4.14541 4.77248,7.63195 4.77085,7.74787 -0.003,0.15837 -4.40071,2.34015 -5.72903,2.84176 -0.10342,0.039 -3.21203,-4.73721 -6.90803,-10.61392 z M 1380.6246,155.2516 c -15.7446,-18.4134 -15.9185,-18.61988 -15.9185,-18.90515 0,-0.12318 4.4945,-0.18592 9.9877,-0.13941 l 9.9878,0.0846 5.8409,16.96 c 3.2125,9.328 5.846,17.068 5.8522,17.2 0.01,0.132 -0.5644,0.24 -1.2682,0.24 h -1.2796 z m -446.31854,5.45179 c -2.4934,-0.95608 -5.4154,-3.92783 -6.3675,-6.4759 -0.9674,-2.58889 -0.9652,-6.08961 0,-8.68379 0.8507,-2.27364 3.4744,-5.05245 5.8821,-6.22974 1.3892,-0.67927 2.0427,-0.78203 4.96,-0.77984 2.886,0.002 3.5757,0.10934 4.8896,0.75976 2.4199,1.198 4.561,3.33585 5.7406,5.73185 0.9415,1.9125 1.0487,2.41361 1.04,4.85914 -0.01,2.30937 -0.1504,3.03442 -0.9283,4.73698 -1.1779,2.57787 -3.9103,5.18253 -6.4229,6.12262 -2.4389,0.91253 -6.3598,0.89422 -8.799,-0.0411 z m 329.60354,6.4e-4 c -2.1401,-0.82148 -4.9671,-3.53324 -6.1011,-5.85243 -0.6786,-1.3877 -0.7824,-2.04582 -0.7824,-4.96 0,-4.02716 0.617,-5.61071 3.1842,-8.17236 2.5718,-2.56629 4.1525,-3.18211 8.1758,-3.18512 4.0378,-0.003 5.4864,0.53724 8.1205,3.02843 3.2871,3.1088 4.4274,7.48354 3.0945,11.87179 -0.6283,2.06884 -0.9565,2.5845 -2.8427,4.4673 -2.7238,2.71892 -4.6586,3.51743 -8.4643,3.49328 -1.8711,-0.0119 -3.1339,-0.21086 -4.3845,-0.69089 z m -721.97823,-0.8761 c -3.20944,-1.19313 -6.58092,-3.40097 -9.50025,-6.22129 -8.77162,-8.47404 -9.68903,-17.08487 -2.58147,-24.2297 5.20092,-5.2282 11.48044,-6.18276 18.05638,-2.74476 1.2255,0.64071 3.02909,2.10625 4.98614,4.05161 2.45716,2.44248 3.31517,3.55281 4.32,5.59043 1.19357,2.42038 1.25386,2.68962 1.25386,5.6 0,2.1981 -0.16483,3.48458 -0.58646,4.57738 -0.32256,0.836 -0.69136,1.52 -0.81956,1.52 -0.12819,0 -1.68972,-1.22022 -3.47004,-2.7116 l -3.237,-2.71159 0.31021,-1.12344 c 0.4928,-1.78485 -0.1319,-3.41361 -2.14217,-5.58494 -2.9768,-3.21528 -5.97127,-4.07393 -9.21053,-2.64107 -1.78858,0.79119 -4.62826,3.55412 -5.48077,5.33264 -0.8681,1.81115 -0.81062,4.41251 0.13776,6.23354 1.3609,2.61307 6.54186,7.36646 8.02906,7.36646 0.49436,0 2.2295,-1.56741 2.2295,-2.01397 0,-0.16183 -1.00451,-1.33021 -2.23226,-2.59639 l -2.23228,-2.30215 2.23596,-2.21882 2.23597,-2.21883 5.1937,5.19369 5.19366,5.1937 -4.79337,4.80138 c -2.63636,2.64077 -4.93917,4.79439 -5.11738,4.78583 -0.17821,-0.009 -1.42861,-0.42621 -2.77866,-0.92811 z m -281.70534,-3.00191 c -1.26184,-0.41541 -3.66832,-1.81682 -3.67604,-2.14074 -0.002,-0.0915 1.34569,-1.51036 2.99527,-3.15308 2.66992,-2.65882 3.07167,-2.94799 3.65896,-2.63368 0.96849,0.51832 2.83991,0.43064 4.17345,-0.19553 2.48132,-1.16513 5.80836,-5.30594 5.80836,-7.22904 0,-0.93141 -0.91966,-1.82235 -1.88109,-1.82235 -1.03255,0 -2.10909,0.62956 -6.26951,3.66638 -6.48618,4.73449 -9.99922,5.85616 -13.55305,4.32735 -2.06914,-0.89012 -3.9846,-2.98307 -4.53755,-4.95801 -1.26303,-4.51112 2.48545,-11.3157 8.88961,-16.13722 3.6898,-2.77795 7.25344,-3.57456 10.71476,-2.39518 2.55008,0.86891 2.54062,1.04103 -0.24577,4.47007 l -2.48104,3.05328 -1.34175,-0.2012 c -0.88073,-0.13208 -1.73382,-0.0374 -2.48284,0.27556 -2.41668,1.00976 -5.69177,4.82588 -5.69177,6.63202 0,0.94057 0.87219,1.90695 1.72109,1.90695 0.85947,0 2.07896,-0.7285 6.49621,-3.88068 8.06659,-5.7564 11.58175,-6.42786 15.44881,-2.95104 2.24751,2.0207 3.00713,3.58036 3.01744,6.19539 0.007,1.6695 -0.18639,2.49637 -0.97085,4.16 -2.12021,4.49642 -7.37645,9.84489 -11.84602,12.05387 -2.66439,1.31681 -5.73152,1.68613 -7.94668,0.95688 z m 32.1454,-36.07635 c -3.39051,-5.09194 -6.21805,-9.25807 -6.28343,-9.25807 -0.0654,0 -2.05527,1.296 -4.42197,2.88 -2.3667,1.584 -4.43482,2.88 -4.5958,2.88 -0.16099,0 -0.85744,-0.9 -1.54767,-2 -0.69023,-1.1 -1.51297,-2.3931 -1.82833,-2.87355 l -0.57336,-0.87355 12.36151,-8.17992 c 6.79882,-4.498952 12.56483,-8.257942 12.81336,-8.353312 0.3039,-0.11662 1.03446,0.72971 2.23107,2.58461 0.97857,1.51691 1.77922,2.823502 1.77922,2.903552 0,0.08 -2.01153,1.48852 -4.47007,3.12995 l -4.47006,2.98442 6.07006,9.20254 c 3.33854,5.06139 6.06654,9.2999 6.06223,9.4189 -0.004,0.119 -1.57257,1.25049 -3.48502,2.51443 l -3.47718,2.29807 z m 199.4683,-0.23471 c -1.79645,-0.8411 -3.34871,-1.61172 -3.44948,-1.71247 -0.14432,-0.14433 5.30343,-12.32071 6.59962,-14.75089 0.16426,-0.308 0.22973,-0.56 0.14547,-0.56 -0.0843,0 -3.19347,2.664 -6.90931,5.92 -3.71584,3.256 -6.92797,5.92114 -7.13805,5.92252 -0.21008,0.001 -1.58745,-0.53861 -3.06083,-1.2 l -2.67891,-1.20252 0.208,-9.27309 c 0.11478,-5.118482 0.0858,-9.132812 -0.0648,-8.960002 -0.15002,0.1722 -1.77411,3.58552 -3.60909,7.585162 -2.7607,6.01737 -3.43264,7.24221 -3.89449,7.09902 -0.30698,-0.0952 -1.92951,-0.81387 -3.6056,-1.59712 l -3.04746,-1.42409 0.44368,-0.87494 c 0.24403,-0.48122 3.00118,-6.418942 6.12698,-13.194942 3.12579,-6.776 5.73612,-12.37948 5.80073,-12.45217 0.0646,-0.0727 2.02602,0.74116 4.35866,1.80855 l 4.24115,1.94071 0.0842,11.07762 0.0842,11.077622 7.43584,-6.452062 c 4.0897,-3.54863 7.80886,-6.79635 8.2648,-7.21714 l 0.82899,-0.76509 4.35507,2.06446 4.35508,2.06445 -5.9362,12.746532 c -3.26492,7.01058 -6.01056,12.99852 -6.10137,13.30652 -0.0908,0.308 -0.25639,0.55835 -0.36784,0.55632 -0.11149,-0.002 -1.67251,-0.69185 -3.46899,-1.53296 z M 321.487,100.06278 c -5.88553,-6.255822 -10.74141,-11.476842 -10.79083,-11.602272 -0.0494,-0.12543 1.86794,-0.99009 4.26081,-1.92147 l 4.35066,-1.69342 0.8592,1.01317 c 4.2606,5.02413 13.71653,15.672262 13.93343,15.690172 0.15082,0.0124 0.1953,-0.18303 0.0989,-0.43441 -0.0965,-0.25139 -0.20554,-5.255392 -0.24237,-11.120002 l -0.0669,-10.66295 4.12809,-1.66381 c 2.27047,-0.9151 4.20013,-1.67128 4.28813,-1.6804 0.16854,-0.0175 0.10675,5.17405 -0.25827,21.70597 l -0.22173,10.041752 -3.2,1.24491 c -1.76,0.6847 -3.92858,1.51762 -4.81904,1.85094 l -1.61901,0.60603 z m 115.21903,0.74002 -4.96,-0.991202 -3.09549,-15.51784 c -1.70253,-8.53482 -3.07053,-15.53906 -3.04,-15.56499 0.0304,-0.0259 2.05594,0.33335 4.50096,0.79839 2.94519,0.56018 4.53139,1.00734 4.7001,1.32499 0.14006,0.2637 1.01974,5.28705 1.95485,11.163 l 1.70019,10.68355 5.73376,-9.49809 c 3.1536,-5.22394 5.83568,-9.56106 5.96022,-9.63803 0.20384,-0.12597 8.62768,1.42511 8.89776,1.63834 0.12983,0.1025 -16.49459,25.713682 -17.03382,26.241882 -0.26074,0.25542 -1.71133,0.0809 -5.31853,-0.64 z M 358.8988,87.115798 c -1.14887,-7.97731 -2.05258,-14.55185 -2.00826,-14.6101 0.0444,-0.0582 3.51296,-0.60738 7.70807,-1.22031 12.11728,-1.77039 16.86108,-1.36208 20.85513,1.79504 1.95879,1.54832 3.41248,3.73699 4.22125,6.35546 2.97213,9.62271 -1.68528,17.09644 -12.18189,19.54815 -1.48889,0.34776 -5.37107,1.00666 -8.62707,1.464232 -3.256,0.45757 -6.36064,0.90839 -6.89917,1.00184 l -0.9792,0.1699 z m 14.38643,5.65607 c 5.83331,-0.95325 8.3808,-3.21762 8.3808,-7.44944 0,-4.62719 -2.12458,-7.45885 -6.08,-8.10345 -1.20787,-0.19684 -8.86998,0.49298 -9.22035,0.8301 -0.10003,0.0962 1.73209,13.44188 2.03091,14.79374 0.12675,0.57342 0.32698,0.68261 1.03334,0.56355 0.48186,-0.0812 2.21674,-0.36674 3.8553,-0.6345 z m 31.29472,4.72188 -1.88608,-0.11684 0.20986,-7.90265 c 0.11542,-4.34646 0.30179,-10.97452 0.41411,-14.72901 l 0.20425,-6.82635 4.19197,0.22555 c 2.30557,0.12406 4.24535,0.27329 4.31059,0.33163 0.0652,0.0583 -0.0437,5.8367 -0.24211,12.8408 -0.19837,7.0041 -0.35974,13.56272 -0.35859,14.57472 l 0.003,1.84 -2.48,-0.0605 c -1.364,-0.0333 -3.32874,-0.11308 -4.36608,-0.17734 z"
       id="path306" />
  </g>
</svg>
